<svg xmlns="http://www.w3.org/2000/svg" width="96" height="96" viewBox="0 0 96 96" fill="none">
  <rect width="96" height="96" rx="24" fill="#173F35"/>
  <path d="M16 65.5c7.3 9.8 18.2 14.8 32 14.8s24.7-5 32-14.8H16Z" fill="#FF6B35"/>
  <path d="M21 63.5h54c-2.5 7.2-12.6 12.5-27 12.5S23.5 70.7 21 63.5Z" fill="#FFD36A"/>
  <path d="M29 60.8c.7-9.6 8.8-17.2 19-17.2s18.3 7.6 19 17.2H29Z" fill="#FFF7EF"/>
  <path d="M37.5 56.2c2.1-3.1 5.9-5.2 10.5-5.2s8.4 2.1 10.5 5.2" stroke="#173F35" stroke-width="4" stroke-linecap="round"/>
  <path d="M35 34c-2.8-4.1 3.2-6.6.5-10.6M48 32c-2.8-4.1 3.2-6.6.5-10.6M61 34c-2.8-4.1 3.2-6.6.5-10.6" stroke="#FFD36A" stroke-width="4" stroke-linecap="round"/>
  <circle cx="25" cy="25" r="7" fill="#FF6B35"/>
  <circle cx="71" cy="27" r="5" fill="#FFD36A"/>
</svg>
