<svg xmlns="http://www.w3.org/2000/svg" width="96" height="96" viewBox="0 0 96 96" fill="none" role="img" aria-labelledby="title desc">
  <title id="title">Masala HUB logo</title>
  <desc id="desc">A modern masala bowl with warm steam and an MH monogram.</desc>
  <defs>
    <linearGradient id="badge" x1="14" y1="10" x2="86" y2="90" gradientUnits="userSpaceOnUse">
      <stop stop-color="#164C3F"/>
      <stop offset="1" stop-color="#092C27"/>
    </linearGradient>
    <linearGradient id="bowl" x1="21" y1="57" x2="76" y2="81" gradientUnits="userSpaceOnUse">
      <stop stop-color="#FF8A3D"/>
      <stop offset="1" stop-color="#E84F25"/>
    </linearGradient>
    <linearGradient id="rim" x1="22" y1="49" x2="74" y2="49" gradientUnits="userSpaceOnUse">
      <stop stop-color="#FFF3CF"/>
      <stop offset="1" stop-color="#FFD36A"/>
    </linearGradient>
    <filter id="softShadow" x="10" y="14" width="76" height="72" filterUnits="userSpaceOnUse" color-interpolation-filters="sRGB">
      <feDropShadow dx="0" dy="8" stdDeviation="5" flood-color="#061A16" flood-opacity="0.28"/>
    </filter>
  </defs>

  <rect x="4" y="4" width="88" height="88" rx="24" fill="url(#badge)"/>
  <rect x="8" y="8" width="80" height="80" rx="20" stroke="#FFE3A1" stroke-opacity="0.22" stroke-width="2"/>

  <g filter="url(#softShadow)">
    <path d="M29 36c-4-7 6-9 2-16" stroke="#FFD36A" stroke-width="4.5" stroke-linecap="round"/>
    <path d="M47 33c-5-8 7-11 2-19" stroke="#FFF3CF" stroke-width="4.5" stroke-linecap="round"/>
    <path d="M65 36c-4-7 6-9 2-16" stroke="#FFD36A" stroke-width="4.5" stroke-linecap="round"/>

    <path d="M22 50c2.8-5.4 12.6-9.4 26-9.4S71.2 44.6 74 50" fill="#FFF7EF"/>
    <path d="M21 50c2 4.8 11.8 8.5 27 8.5S73 54.8 75 50c-2-5-11.8-8.8-27-8.8S23 45 21 50Z" fill="url(#rim)"/>
    <path d="M26 54h44c-1.7 13-10.2 21.2-22 21.2S27.7 67 26 54Z" fill="url(#bowl)"/>
    <path d="M31 58h34c-2.7 6.4-8.5 10.2-17 10.2S33.7 64.4 31 58Z" fill="#FFE7B1" fill-opacity="0.26"/>
    <path d="M30 53.5h36" stroke="#6F2118" stroke-opacity="0.2" stroke-width="3" stroke-linecap="round"/>
  </g>

  <path d="M29 73.5c5.2 5.4 11.5 8.1 19 8.1s13.8-2.7 19-8.1" stroke="#FFE3A1" stroke-width="3.5" stroke-linecap="round"/>
  <path d="M31 49.5h7.2l3.7 7.8 3.7-7.8h7.2v14h-5.1v-7.2l-3.2 7.2h-5.2L36 56.4v7.1h-5V49.5Zm27.2 0h5.1v4.7h5.8v-4.7h5.1v14h-5.1v-4.8h-5.8v4.8h-5.1v-14Z" fill="#173F35"/>
  <circle cx="24" cy="26" r="3.5" fill="#FF8A3D"/>
  <circle cx="74" cy="29" r="3" fill="#FFD36A"/>
</svg>
